<svg xmlns="http://www.w3.org/2000/svg" viewBox="0 0 256 256" width="100%" height="100%">
  <defs>
    <style>
      @keyframes float {
        0%, 100% { transform: translateY(0px); }
        50% { transform: translateY(-6px); }
      }
      .animate-float {
        animation: float 4s ease-in-out infinite;
      }
    </style>
  </defs>
  <rect width="256" height="256" rx="56" fill="#121212" />
  <g transform="translate(128, 128)">
    <path d="M -94 -20 L -114 0 L -94 20" fill="none" stroke="#6B7280" stroke-width="12" stroke-linecap="round" stroke-linejoin="round" />
    <g transform="scale(1.25)">
      <g class="animate-float">
        <polygon points="0,14 -24,28 0,42 24,28" fill="#3A2D58" />
        <polygon points="0,-28 24,-14 24,28 0,14" fill="#2C2244" />
        <polygon points="0,-28 -24,-14 -24,28 0,14" fill="#221A35" />
        <polygon points="48,-28 24,-14 24,28 0,42 0,56 48,28" fill="#49396D" />
        <polygon points="-48,-28 -24,-14 -24,28 0,42 0,56 -48,28" fill="#5F4B8B" />
        <polygon points="48,-28 0,-56 -24,-42 24,-14" fill="#8168B1" />
        <polygon points="-48,-28 0,-56 24,-42 -24,-14" fill="#8168B1" />
      </g>
    </g>
    <path d="M 72 28 L 84 -28" fill="none" stroke="#6B7280" stroke-width="10" stroke-linecap="round" />
    <path d="M 94 -20 L 114 0 L 94 20" fill="none" stroke="#6B7280" stroke-width="12" stroke-linecap="round" stroke-linejoin="round" />
  </g>
</svg>
